# File produced by Open Asset Import Library (http://www.assimp.sf.net)
# (assimp v3.1.187496374)

mtllib weight.obj.mtl

# 108 vertex positions
v  -1.25 0.450959 3
v  -1.25 -0.256148 3
v  -2.5758 -0.87484 3
v  -1.33841 -1.05167 3
v  -0.896447 -0.609701 3
v  -0.403914 -2.75615 3
v  -0.996086 -3.75615 3
v  0.403914 -2.75615 3
v  0.996086 -3.75615 3
v  2.5758 -0.87484 3
v  1.33841 -1.05167 3
v  1.25 -0.256148 3
v  1.25 0.450959 3
v  0.896447 -0.609701 3
v  -2.5758 -0.87484 3.5
v  -0.996086 -3.75615 3.5
v  -1.25 0.450959 3.5
v  2.5758 -0.87484 3.5
v  1.25 0.450959 3.5
v  0.996086 -3.75615 3.5
v  1 -0.00614785 3.5
v  1 1.99385 3.5
v  -1 -0.00614785 3.5
v  1.25 2.24385 3.5
v  -1.25 2.24385 3.5
v  -1 1.99385 3.5
v  0.896447 -0.609701 2.5
v  1.25 -0.256148 2.5
v  1.33841 -1.05167 2.5
v  0.403914 -2.75615 2.5
v  -0.403914 -2.75615 2.5
v  -1.33841 -1.05167 2.5
v  -0.896447 -0.609701 2.5
v  -1.25 -0.256148 2.5
v  -1.25 0.450959 2
v  -1.25 -0.256148 2
v  -2.5758 -0.87484 2
v  -1.33841 -1.05167 2
v  -0.896447 -0.609701 2
v  -0.403914 -2.75615 2
v  -0.996086 -3.75615 2
v  0.403914 -2.75615 2
v  0.996086 -3.75615 2
v  2.5758 -0.87484 2
v  1.33841 -1.05167 2
v  1.25 -0.256148 2
v  1.25 0.450959 2
v  0.896447 -0.609701 2
v  -2.5758 -0.87484 2.5
v  -0.996086 -3.75615 2.5
v  -1.25 0.450959 2.5
v  2.5758 -0.87484 2.5
v  1.25 0.450959 2.5
v  0.996086 -3.75615 2.5
v  0.896447 -0.609701 1.5
v  1.25 -0.256148 1.5
v  1.33841 -1.05167 1.5
v  0.403914 -2.75615 1.5
v  -0.403914 -2.75615 1.5
v  -1.33841 -1.05167 1.5
v  -0.896447 -0.609701 1.5
v  -1.25 -0.256148 1.5
v  -1.25 0.450959 1
v  -1.25 -0.256148 1
v  -2.5758 -0.87484 1
v  -1.33841 -1.05167 1
v  -0.896447 -0.609701 1
v  -0.403914 -2.75615 1
v  -0.996086 -3.75615 1
v  0.403914 -2.75615 1
v  0.996086 -3.75615 1
v  2.5758 -0.87484 1
v  1.33841 -1.05167 1
v  1.25 -0.256148 1
v  1.25 0.450959 1
v  0.896447 -0.609701 1
v  -2.5758 -0.87484 1.5
v  -0.996086 -3.75615 1.5
v  -1.25 0.450959 1.5
v  2.5758 -0.87484 1.5
v  1.25 0.450959 1.5
v  0.996086 -3.75615 1.5
v  0.896447 -0.609701 0.5
v  1.25 -0.256148 0.5
v  1.33841 -1.05167 0.5
v  0.403914 -2.75615 0.5
v  -0.403914 -2.75615 0.5
v  -1.33841 -1.05167 0.5
v  -0.896447 -0.609701 0.5
v  -1.25 -0.256148 0.5
v  -1 1.99385 0
v  1 1.99385 0
v  -1 -0.00614785 0
v  1 -0.00614785 0
v  -2.5758 -0.87484 0
v  -0.996086 -3.75615 0
v  -2.5758 -0.87484 0.5
v  -0.996086 -3.75615 0.5
v  -1.25 0.450959 0
v  -1.25 0.450959 0.5
v  -1.25 2.24385 0
v  1.25 2.24385 0
v  1.25 0.450959 0
v  1.25 0.450959 0.5
v  2.5758 -0.87484 0
v  2.5758 -0.87484 0.5
v  0.996086 -3.75615 0
v  0.996086 -3.75615 0.5

# 0 UV coordinates

# 22 vertex normals
vn 0 0 -1
vn -0.876859 -0.480748 0
vn -0.876859 -0.480748 5.40593e-16
vn -0.707107 0.707107 -1.57009e-16
vn -0.707107 0.707107 0
vn 0.707107 0.707107 0
vn 0.876859 -0.480748 4.2699e-16
vn 0.876859 -0.480748 0
vn 0 -1 8.88178e-16
vn 0 0 1
vn 0.707107 -0.707107 3.14018e-16
vn 0.707107 -0.707107 0
vn 0.707107 0.707107 3.14018e-16
vn 0.707107 0.707107 -3.5525e-16
vn 0.876859 -0.480748 -2.28459e-16
vn 0 -1 0
vn -0.707107 0.707107 -2.76085e-31
vn -0.707107 -0.707107 0
vn -0.707107 -0.707107 3.33067e-16
vn 1 0 0
vn 0 1 0
vn -1 0 0

# Mesh '<STL_BINARY>' with 216 faces
g <STL_BINARY>
usemtl DefaultMaterial
f  1//1 2//1 3//1
f  3//1 2//1 4//1
f  2//1 5//1 4//1
f  3//1 4//1 6//1
f  3//1 6//1 7//1
f  7//1 6//1 8//1
f  7//1 8//1 9//1
f  9//1 8//1 10//1
f  10//1 8//1 11//1
f  10//1 11//1 12//1
f  12//1 13//1 10//1
f  12//1 11//1 14//1
f  3//2 7//2 15//2
f  15//2 7//2 16//3
f  1//4 3//4 17//4
f  17//4 3//4 15//5
f  10//6 13//6 18//6
f  18//6 13//6 19//6
f  9//7 10//7 20//7
f  20//7 10//7 18//8
f  7//9 9//9 16//9
f  16//9 9//9 20//9
f  21//10 19//10 22//10
f  23//10 20//10 21//10
f  21//10 20//10 18//10
f  21//10 18//10 19//10
f  22//10 19//10 24//10
f  22//10 24//10 25//10
f  25//10 26//10 22//10
f  17//10 26//10 25//10
f  26//10 17//10 23//10
f  23//10 17//10 15//10
f  23//10 15//10 16//10
f  16//10 20//10 23//10
f  27//11 28//11 14//11
f  14//11 28//11 12//12
f  29//13 27//13 11//13
f  11//13 27//13 14//14
f  30//8 29//8 8//8
f  8//8 29//8 11//15
f  31//16 30//16 6//16
f  6//16 30//16 8//16
f  32//2 31//2 4//2
f  4//2 31//2 6//2
f  33//17 32//17 5//17
f  5//17 32//17 4//5
f  34//18 33//18 2//18
f  2//18 33//18 5//19
f  35//1 36//1 37//1
f  37//1 36//1 38//1
f  36//1 39//1 38//1
f  37//1 38//1 40//1
f  37//1 40//1 41//1
f  41//1 40//1 42//1
f  41//1 42//1 43//1
f  43//1 42//1 44//1
f  44//1 42//1 45//1
f  44//1 45//1 46//1
f  46//1 47//1 44//1
f  46//1 45//1 48//1
f  37//2 41//2 49//2
f  49//2 41//2 50//3
f  35//4 37//4 51//4
f  51//4 37//4 49//5
f  44//6 47//6 52//6
f  52//6 47//6 53//6
f  43//7 44//7 54//7
f  54//7 44//7 52//8
f  41//9 43//9 50//9
f  50//9 43//9 54//9
f  51//10 49//10 34//10
f  34//10 49//10 32//10
f  32//10 49//10 31//10
f  31//10 49//10 50//10
f  34//10 32//10 33//10
f  31//10 50//10 54//10
f  31//10 54//10 30//10
f  30//10 54//10 52//10
f  30//10 52//10 29//10
f  29//10 52//10 28//10
f  52//10 53//10 28//10
f  29//10 28//10 27//10
f  55//11 56//11 48//11
f  48//11 56//11 46//12
f  57//13 55//13 45//13
f  45//13 55//13 48//14
f  58//8 57//8 42//8
f  42//8 57//8 45//15
f  59//16 58//16 40//16
f  40//16 58//16 42//16
f  60//2 59//2 38//2
f  38//2 59//2 40//2
f  61//17 60//17 39//17
f  39//17 60//17 38//5
f  62//18 61//18 36//18
f  36//18 61//18 39//19
f  63//1 64//1 65//1
f  65//1 64//1 66//1
f  64//1 67//1 66//1
f  65//1 66//1 68//1
f  65//1 68//1 69//1
f  69//1 68//1 70//1
f  69//1 70//1 71//1
f  71//1 70//1 72//1
f  72//1 70//1 73//1
f  72//1 73//1 74//1
f  74//1 75//1 72//1
f  74//1 73//1 76//1
f  65//2 69//2 77//2
f  77//2 69//2 78//3
f  63//4 65//4 79//4
f  79//4 65//4 77//5
f  72//6 75//6 80//6
f  80//6 75//6 81//6
f  71//7 72//7 82//7
f  82//7 72//7 80//8
f  69//9 71//9 78//9
f  78//9 71//9 82//9
f  79//10 77//10 62//10
f  62//10 77//10 60//10
f  60//10 77//10 59//10
f  59//10 77//10 78//10
f  62//10 60//10 61//10
f  59//10 78//10 82//10
f  59//10 82//10 58//10
f  58//10 82//10 80//10
f  58//10 80//10 57//10
f  57//10 80//10 56//10
f  80//10 81//10 56//10
f  57//10 56//10 55//10
f  83//11 84//11 76//11
f  76//11 84//11 74//12
f  85//13 83//13 73//13
f  73//13 83//13 76//14
f  86//8 85//8 70//8
f  70//8 85//8 73//15
f  87//16 86//16 68//16
f  68//16 86//16 70//16
f  88//2 87//2 66//2
f  66//2 87//2 68//2
f  89//17 88//17 67//17
f  67//17 88//17 66//5
f  90//18 89//18 64//18
f  64//18 89//18 67//19
f  91//16 92//16 26//16
f  26//16 92//16 22//16
f  93//20 91//20 23//20
f  23//20 91//20 26//20
f  94//21 93//21 21//21
f  21//21 93//21 23//21
f  92//22 94//22 22//22
f  22//22 94//22 21//22
f  95//2 96//2 97//2
f  97//2 96//2 98//3
f  99//4 95//4 100//4
f  100//4 95//4 97//5
f  99//22 100//22 101//22
f  101//22 100//22 63//22
f  100//22 90//22 63//22
f  101//22 63//22 79//22
f  101//22 79//22 35//22
f  101//22 35//22 25//22
f  63//22 90//22 64//22
f  25//22 35//22 51//22
f  25//22 51//22 1//22
f  1//22 17//22 25//22
f  35//22 79//22 62//22
f  35//22 62//22 36//22
f  1//22 51//22 34//22
f  1//22 34//22 2//22
f  102//21 101//21 24//21
f  24//21 101//21 25//21
f  103//20 102//20 104//20
f  104//20 102//20 75//20
f  24//20 47//20 102//20
f  102//20 47//20 81//20
f  102//20 81//20 75//20
f  104//20 75//20 74//20
f  74//20 84//20 104//20
f  47//20 46//20 81//20
f  81//20 46//20 56//20
f  24//20 53//20 47//20
f  19//20 13//20 24//20
f  24//20 13//20 53//20
f  13//20 12//20 53//20
f  53//20 12//20 28//20
f  105//6 103//6 106//6
f  106//6 103//6 104//6
f  107//7 105//7 108//7
f  108//7 105//7 106//8
f  96//9 107//9 98//9
f  98//9 107//9 108//9
f  100//10 97//10 90//10
f  90//10 97//10 88//10
f  88//10 97//10 87//10
f  87//10 97//10 98//10
f  90//10 88//10 89//10
f  87//10 98//10 108//10
f  87//10 108//10 86//10
f  86//10 108//10 106//10
f  86//10 106//10 85//10
f  85//10 106//10 84//10
f  106//10 104//10 84//10
f  85//10 84//10 83//10
f  92//1 103//1 94//1
f  103//1 92//1 102//1
f  102//1 92//1 91//1
f  94//1 103//1 105//1
f  94//1 105//1 107//1
f  96//1 93//1 94//1
f  96//1 94//1 107//1
f  95//1 93//1 96//1
f  99//1 91//1 93//1
f  99//1 93//1 95//1
f  102//1 91//1 101//1
f  101//1 91//1 99//1

